<svg width="46" height="24" viewBox="0 0 46 24" fill="none" xmlns="http://www.w3.org/2000/svg">
<path d="M26.8374 15.5171C26.8374 16.1421 26.7254 16.7254 26.5015 17.2671C26.2775 17.8035 25.9728 18.2697 25.5874 18.6655C25.202 19.0562 24.7489 19.366 24.228 19.5952C23.7124 19.8192 23.1577 19.9312 22.564 19.9312C21.9754 19.9312 21.4207 19.8192 20.8999 19.5952C20.3843 19.366 19.9312 19.0562 19.5405 18.6655C19.1551 18.2697 18.8504 17.8035 18.6265 17.2671C18.4025 16.7254 18.2905 16.1421 18.2905 15.5171C18.2905 14.8817 18.4025 14.2931 18.6265 13.7515C18.8504 13.2098 19.1551 12.7437 19.5405 12.353C19.9312 11.9572 20.3843 11.6473 20.8999 11.4233C21.4207 11.1994 21.9754 11.0874 22.564 11.0874C23.1577 11.0874 23.7124 11.1942 24.228 11.4077C24.7489 11.616 25.202 11.9155 25.5874 12.3062C25.9728 12.6916 26.2775 13.1577 26.5015 13.7046C26.7254 14.2463 26.8374 14.8504 26.8374 15.5171ZM24.689 15.5171C24.689 15.1733 24.6317 14.8634 24.5171 14.5874C24.4077 14.3062 24.2567 14.0666 24.064 13.8687C23.8713 13.6655 23.6447 13.5119 23.3843 13.4077C23.1291 13.2983 22.8556 13.2437 22.564 13.2437C22.2723 13.2437 21.9963 13.2983 21.7358 13.4077C21.4806 13.5119 21.2567 13.6655 21.064 13.8687C20.8765 14.0666 20.728 14.3062 20.6187 14.5874C20.5093 14.8634 20.4546 15.1733 20.4546 15.5171C20.4546 15.84 20.5093 16.1395 20.6187 16.4155C20.728 16.6916 20.8765 16.9312 21.064 17.1343C21.2567 17.3374 21.4806 17.4989 21.7358 17.6187C21.9963 17.7332 22.2723 17.7905 22.564 17.7905C22.8556 17.7905 23.1291 17.7358 23.3843 17.6265C23.6447 17.5171 23.8713 17.3634 24.064 17.1655C24.2567 16.9676 24.4077 16.728 24.5171 16.4468C24.6317 16.1655 24.689 15.8556 24.689 15.5171ZM30.1655 22.9624H28.0171V11.4077H28.5327L29.3843 12.4155C29.577 12.2332 29.7879 12.0614 30.0171 11.8999C30.2463 11.7384 30.4832 11.6004 30.728 11.4858C30.978 11.366 31.2358 11.2723 31.5015 11.2046C31.7671 11.1369 32.0353 11.103 32.3062 11.103C32.8947 11.103 33.4468 11.2098 33.9624 11.4233C34.4832 11.6317 34.9364 11.9285 35.3218 12.314C35.7124 12.6994 36.0197 13.1655 36.2437 13.7124C36.4676 14.2541 36.5796 14.8556 36.5796 15.5171C36.5796 16.2046 36.4676 16.8244 36.2437 17.3765C36.0197 17.9233 35.7124 18.3895 35.3218 18.7749C34.9364 19.1551 34.4832 19.4468 33.9624 19.6499C33.4468 19.853 32.8947 19.9546 32.3062 19.9546C32.1187 19.9546 31.9312 19.9338 31.7437 19.8921C31.5614 19.8504 31.3791 19.7957 31.1968 19.728C31.0197 19.6551 30.8426 19.5744 30.6655 19.4858C30.4937 19.3973 30.327 19.3062 30.1655 19.2124V22.9624ZM34.439 15.5171C34.439 15.1629 34.3817 14.8452 34.2671 14.564C34.1577 14.2827 34.0067 14.0457 33.814 13.853C33.6213 13.6551 33.3947 13.5041 33.1343 13.3999C32.8739 13.2957 32.5978 13.2437 32.3062 13.2437C32.0145 13.2437 31.7384 13.2957 31.478 13.3999C31.2228 13.5041 30.9989 13.6551 30.8062 13.853C30.6134 14.0457 30.4598 14.2827 30.3452 14.564C30.2358 14.8452 30.1812 15.1629 30.1812 15.5171C30.1812 15.8556 30.2358 16.1655 30.3452 16.4468C30.4598 16.728 30.6134 16.9676 30.8062 17.1655C30.9989 17.3634 31.2228 17.5171 31.478 17.6265C31.7384 17.7358 32.0145 17.7905 32.3062 17.7905C32.5978 17.7905 32.8739 17.7358 33.1343 17.6265C33.3947 17.5171 33.6213 17.3634 33.814 17.1655C34.0067 16.9676 34.1577 16.728 34.2671 16.4468C34.3817 16.1655 34.439 15.8556 34.439 15.5171ZM41.0952 17.728C41.1785 17.7541 41.2619 17.7723 41.3452 17.7827C41.4285 17.7879 41.5119 17.7905 41.5952 17.7905C41.8035 17.7905 42.0041 17.7619 42.1968 17.7046C42.3895 17.6473 42.5692 17.5666 42.7358 17.4624C42.9077 17.353 43.0588 17.2228 43.189 17.0718C43.3244 16.9155 43.4338 16.7437 43.5171 16.5562L45.0796 18.1265C44.8817 18.4077 44.6525 18.6603 44.3921 18.8843C44.1369 19.1082 43.8582 19.2983 43.5562 19.4546C43.2593 19.6108 42.9442 19.728 42.6108 19.8062C42.2827 19.8895 41.9442 19.9312 41.5952 19.9312C41.0067 19.9312 40.452 19.8218 39.9312 19.603C39.4155 19.3843 38.9624 19.0796 38.5718 18.689C38.1864 18.2983 37.8817 17.8348 37.6577 17.2983C37.4338 16.7567 37.3218 16.1629 37.3218 15.5171C37.3218 14.8556 37.4338 14.2515 37.6577 13.7046C37.8817 13.1577 38.1864 12.6916 38.5718 12.3062C38.9624 11.9207 39.4155 11.6213 39.9312 11.4077C40.452 11.1942 41.0067 11.0874 41.5952 11.0874C41.9442 11.0874 42.2853 11.1291 42.6187 11.2124C42.952 11.2957 43.2671 11.4155 43.564 11.5718C43.866 11.728 44.1473 11.9207 44.4077 12.1499C44.6681 12.3739 44.8973 12.6265 45.0952 12.9077L41.0952 17.728ZM42.189 13.3296C42.09 13.2931 41.991 13.2697 41.8921 13.2593C41.7983 13.2489 41.6994 13.2437 41.5952 13.2437C41.3035 13.2437 41.0275 13.2983 40.7671 13.4077C40.5119 13.5119 40.2879 13.6629 40.0952 13.8608C39.9077 14.0588 39.7593 14.2983 39.6499 14.5796C39.5405 14.8556 39.4858 15.1681 39.4858 15.5171C39.4858 15.5952 39.4884 15.6838 39.4937 15.7827C39.5041 15.8817 39.5171 15.9832 39.5327 16.0874C39.5535 16.1864 39.577 16.2827 39.603 16.3765C39.6291 16.4702 39.6629 16.5535 39.7046 16.6265L42.189 13.3296Z" fill="#4DD8D9"/>
<rect x="2.99609" y="1" width="3.98485" height="11.1" fill="#4DD8D9"/>
<path d="M9.44777 13.95H6.98096V11.9669C8.6255 9.32272 13.518 4.69538 19.9317 7.33958L18.6983 9.98375C16.8482 9.3227 12.4079 9.19049 9.44777 13.95Z" fill="#4DD8D9" stroke="#4DD8D9"/>
<rect width="3.98485" height="11.1" transform="matrix(1 0 0 -1 2.99609 23.2)" fill="#4DD8D9"/>
<path d="M9.44777 14.8749H6.98096V16.858C8.6255 19.5022 13.518 24.1296 19.9317 21.4854L18.6983 18.8412C16.8482 19.5022 12.4079 19.6345 9.44777 14.8749Z" fill="#4DD8D9" stroke="#4DD8D9"/>
<path d="M2.99621 1.4624H2L4.98864 4.2374" stroke="#4DD8D9"/>
</svg>
